# xmcd
#
# Track frame offsets: 
#        150
#        12476
#        26527
#        45665
#        69368
#        84193
#        106683
#        125876
#        143189
#        163226
#        179238
#        196701
#        216233
#        230626
#
# Disc length: 3359 seconds
#
# Revision: 1
# Processed by: cddbd v1.5.2PL0 Copyright (c) Steve Scherf et al.
# Submitted via: ExactAudioCopy v1.0b1
#
DISCID=c50d1d0e
DTITLE=Mr. Credo - Шоколад
DYEAR=2008
DGENRE=Pop
TTITLE0="Beowulf" Intro
TTITLE1=Подари мне-солнце!
TTITLE2=Вика-Виктория 
TTITLE3=Голубые глаза
TTITLE4=Мимоза 
TTITLE5=Снег 
TTITLE6=Олигарх 
TTITLE7=Девочка-ночь
TTITLE8=Аутсайдеры 
TTITLE9=Куба 
TTITLE10=Песня про попы 
TTITLE11=К.Л.Е.Н.
TTITLE12=Песня про попы 
TTITLE13=Чудная долина
EXTD=
EXTT0=
EXTT1=
EXTT2=
EXTT3=
EXTT4=
EXTT5=
EXTT6=
EXTT7=
EXTT8=
EXTT9=
EXTT10=
EXTT11=
EXTT12=
EXTT13=
PLAYORDER=
